<svg width="24" height="25" viewBox="0 0 24 25" fill="none" xmlns="http://www.w3.org/2000/svg">
<g clip-path="url(#clip0_62_507)">
<path d="M12 17C10.8065 17 9.66193 16.5259 8.81802 15.682C7.97411 14.8381 7.5 13.6935 7.5 12.5C7.5 11.3065 7.97411 10.1619 8.81802 9.31802C9.66193 8.47411 10.8065 8 12 8C13.1935 8 14.3381 8.47411 15.182 9.31802C16.0259 10.1619 16.5 11.3065 16.5 12.5C16.5 13.6935 16.0259 14.8381 15.182 15.682C14.3381 16.5259 13.1935 17 12 17ZM12 18.5C13.5913 18.5 15.1174 17.8679 16.2426 16.7426C17.3679 15.6174 18 14.0913 18 12.5C18 10.9087 17.3679 9.38258 16.2426 8.25736C15.1174 7.13214 13.5913 6.5 12 6.5C10.4087 6.5 8.88258 7.13214 7.75736 8.25736C6.63214 9.38258 6 10.9087 6 12.5C6 14.0913 6.63214 15.6174 7.75736 16.7426C8.88258 17.8679 10.4087 18.5 12 18.5ZM12 0.5C12.1989 0.5 12.3897 0.579018 12.5303 0.71967C12.671 0.860322 12.75 1.05109 12.75 1.25V4.25C12.75 4.44891 12.671 4.63968 12.5303 4.78033C12.3897 4.92098 12.1989 5 12 5C11.8011 5 11.6103 4.92098 11.4697 4.78033C11.329 4.63968 11.25 4.44891 11.25 4.25V1.25C11.25 1.05109 11.329 0.860322 11.4697 0.71967C11.6103 0.579018 11.8011 0.5 12 0.5V0.5ZM12 20C12.1989 20 12.3897 20.079 12.5303 20.2197C12.671 20.3603 12.75 20.5511 12.75 20.75V23.75C12.75 23.9489 12.671 24.1397 12.5303 24.2803C12.3897 24.421 12.1989 24.5 12 24.5C11.8011 24.5 11.6103 24.421 11.4697 24.2803C11.329 24.1397 11.25 23.9489 11.25 23.75V20.75C11.25 20.5511 11.329 20.3603 11.4697 20.2197C11.6103 20.079 11.8011 20 12 20ZM24 12.5C24 12.6989 23.921 12.8897 23.7803 13.0303C23.6397 13.171 23.4489 13.25 23.25 13.25H20.25C20.0511 13.25 19.8603 13.171 19.7197 13.0303C19.579 12.8897 19.5 12.6989 19.5 12.5C19.5 12.3011 19.579 12.1103 19.7197 11.9697C19.8603 11.829 20.0511 11.75 20.25 11.75H23.25C23.4489 11.75 23.6397 11.829 23.7803 11.9697C23.921 12.1103 24 12.3011 24 12.5ZM4.5 12.5C4.5 12.6989 4.42098 12.8897 4.28033 13.0303C4.13968 13.171 3.94891 13.25 3.75 13.25H0.75C0.551088 13.25 0.360322 13.171 0.21967 13.0303C0.0790176 12.8897 0 12.6989 0 12.5C0 12.3011 0.0790176 12.1103 0.21967 11.9697C0.360322 11.829 0.551088 11.75 0.75 11.75H3.75C3.94891 11.75 4.13968 11.829 4.28033 11.9697C4.42098 12.1103 4.5 12.3011 4.5 12.5ZM20.4855 4.0145C20.6261 4.15515 20.7051 4.34588 20.7051 4.54475C20.7051 4.74362 20.6261 4.93435 20.4855 5.075L18.3645 7.1975C18.2948 7.26713 18.212 7.32235 18.1209 7.36C18.0299 7.39765 17.9323 7.41699 17.8337 7.41692C17.6347 7.41678 17.4439 7.33758 17.3032 7.19675C17.2336 7.12702 17.1784 7.04425 17.1408 6.95318C17.1031 6.86211 17.0838 6.76452 17.0838 6.66597C17.084 6.46695 17.1632 6.27613 17.304 6.1355L19.425 4.0145C19.5656 3.8739 19.7564 3.79491 19.9552 3.79491C20.1541 3.79491 20.3449 3.8739 20.4855 4.0145ZM6.696 17.804C6.8366 17.9446 6.91559 18.1354 6.91559 18.3342C6.91559 18.5331 6.8366 18.7239 6.696 18.8645L4.575 20.9855C4.43355 21.1221 4.2441 21.1977 4.04745 21.196C3.8508 21.1943 3.66269 21.1154 3.52364 20.9764C3.38458 20.8373 3.3057 20.6492 3.30399 20.4526C3.30229 20.2559 3.37788 20.0665 3.5145 19.925L5.6355 17.804C5.77615 17.6634 5.96688 17.5844 6.16575 17.5844C6.36462 17.5844 6.55535 17.6634 6.696 17.804ZM20.4855 20.9855C20.3449 21.1261 20.1541 21.2051 19.9552 21.2051C19.7564 21.2051 19.5656 21.1261 19.425 20.9855L17.304 18.8645C17.1674 18.723 17.0918 18.5336 17.0935 18.3369C17.0952 18.1403 17.1741 17.9522 17.3131 17.8131C17.4522 17.6741 17.6403 17.5952 17.8369 17.5935C18.0336 17.5918 18.223 17.6674 18.3645 17.804L20.4855 19.925C20.6261 20.0656 20.7051 20.2564 20.7051 20.4552C20.7051 20.6541 20.6261 20.8449 20.4855 20.9855ZM6.696 7.1975C6.55535 7.3381 6.36462 7.41709 6.16575 7.41709C5.96688 7.41709 5.77615 7.3381 5.6355 7.1975L3.5145 5.075C3.44287 5.00582 3.38573 4.92306 3.34642 4.83155C3.30712 4.74005 3.28643 4.64164 3.28556 4.54205C3.2847 4.44247 3.30367 4.34371 3.34138 4.25153C3.37909 4.15936 3.43478 4.07562 3.5052 4.0052C3.57562 3.93478 3.65936 3.87909 3.75153 3.84138C3.84371 3.80367 3.94247 3.7847 4.04205 3.78556C4.14164 3.78643 4.24005 3.80712 4.33155 3.84642C4.42306 3.88573 4.50582 3.94287 4.575 4.0145L6.696 6.1355C6.76585 6.20517 6.82126 6.28793 6.85907 6.37905C6.89688 6.47017 6.91634 6.56785 6.91634 6.6665C6.91634 6.76515 6.89688 6.86283 6.85907 6.95395C6.82126 7.04507 6.76585 7.12783 6.696 7.1975Z" fill="white"/>
</g>
<defs>
<clipPath id="clip0_62_507">
<rect width="24" height="24" fill="white" transform="translate(0 0.5)"/>
</clipPath>
</defs>
</svg>
